<?xml version="1.0" encoding="UTF-8"?>
<svg version="1.1" viewBox="0 0 2048 2048" width="512" height="512" xmlns="http://www.w3.org/2000/svg">
<path transform="translate(39)" d="m0 0h1249l13 5 11 8 6 7 6 10 3 13 1 395-1 2-26 4-61 8h-10l-1-68v-190l1-97-832 1 73 21 23 7 73 21 23 7 73 21 23 7 24 7 14 6 8 6 7 7 6 10 3 11 1 14 1 539 11-13 9-11 11-13 18-22 12-14 11-14 8-9 11-14 9-10 8-10 11-13 9-12h2l2-4 9-11 13-15 13-10 12-6 15-4 53-10 72-13 59-11 72-13 59-11 67-12 16-2h33l25 4 24 7 42 16 88 34 36 14 16 7 15 9 13 11 10 11 7 10 8 16 5 15 3 16v20l-4 20-8 24-20 52-8 21-21 55-9 23-6 16-4 10v2l26 7 121 31 74 19 18 6 13 7 13 11 8 11 7 14 4 16 1 14h19l14 2 9 4 8 6 7 8 5 12 1 6v91h69l15 3 10 6 5 4 7 11 3 8 1 7v281l-3 14-6 10-4 5-11 7-12 3-13 1h-340l3-10 14-40 7-29 1-5v-35l-7-31-8-18-11-21-11-17-91-143 1-4 11-5 12-2h69v-96l-49-13-55-14-9-2-16 42-30 79-6 16v7l10 15 11 18 11 17 14 22 15 23 11 18 11 17 12 19 11 17 7 11 11 18 8 17 3 12 1 7v15l-3 17-12 36-19 53-34 96-16 45-17 48-11 30-10 29-18 50-6 17-7 16-10 14-11 11-13 8-11 5-13 4-6 1h-24l-16-4-17-8-10-8-12-12-10-16-5-13-3-15v-16l4-20 17-49 10-27 10-29 12-34 21-59 17-47 10-29 17-48 14-40-1-5-42-66-16-25-12-19-16-25-12-19-56-88-12-19-9-14-5-4-18-6-5 16-13 44-23 79-24 82-17 58-19 65-8 21-9 17-8 16-12 23-12 22-20 39-9 16-8 16-13 25-11 20-8 16-12 22-8 16-12 22-8 16-18 34-13 25-10 17-11 13-9 8-14 8-16 6-11 2h-24l-7-2v-229l17-33 10-19 18-34 12-23 10-19 18-34 15-29 12-22 11-21 5-14 11-37 15-52 42-145 19-66 14-49 11-30 19-49 14-37 21-55 16-42 21-55 13-34 11-29 20-52 15-40v-2l-84 15-147 27-9 3-9 11-11 13-8 10-9 11-11 13-11 14-9 10-8 10-12 14-8 10-9 11-11 13-11 14-9 10-11 14-9 10-11 14-9 10-8 10-9 11-11 13-9 11-14 14-17 10-1 985-1 22-4 13-6 9-8 8-10 6-9 4h-22l-32-10-76-22-377-110-161-47-17-7-10-9-7-9-4-9-2-11-1-93h-1v-1656h1l1-19 2-12 4-9 7-10 8-7 9-5 6-1zm-37 161m0 331v9h1v-9zm0 10 1 2zm0 4 1 2zm0 4 1 2zm0 55m554 377-12 3-10 6-6 5-7 10-4 9-2 10v286l2 11 7 14 6 7 12 8 15 4h11l12-3 12-7 5-4 9-14 3-10 1-7v-283l-3-15-5-9-5-7-11-8-8-4-10-2zm1172 194v47h125v-47z"/>
<path transform="translate(1605,191)" d="m0 0 23 1 18 3 20 6 25 12 11 7 14 11 12 11 9 11 9 12 10 18 6 14 6 20 3 17 1 10v14l-1 17-6 25-5 15-12 24-9 12-8 10-9 10-11 9-14 10-18 10-21 8-15 4-19 3h-28l-16-2-28-8-16-8-15-8-14-11-10-9-7-7-9-11-8-11-11-20-7-19-4-15-3-21v-21l2-19 8-29 8-17 8-14 7-9 10-13 9-9 11-9 11-8 18-10 14-6 20-6 20-3z"/>
<path transform="translate(1262,1304)" d="m0 0h3l10 16 16 25 12 19 16 25 8 13 1 8-1 155-12 35-18 50-10 29-15 42-22 62-5 16-5 21-1 11-1 27-1 1h-209l1-5 14-26 15-29 10-19 10-18 7-1h111l33 1 1-349 21-72 9-31z"/>
<path transform="translate(1295,1)" d="m0 0"/>
<path transform="translate(1292)" d="m0 0"/>
</svg>
