<?xml version="1.0" encoding="UTF-8"?>
<svg version="1.1" viewBox="0 0 2048 2048" width="512" height="512" xmlns="http://www.w3.org/2000/svg">
<path transform="translate(92,921)" d="m0 0h1863l18 3 16 6 14 8 10 8 9 8 11 15 8 16 5 14 2 1v46l-2 2-6 18-6 11-9 13-5 6-8 7-13 9-16 8-18 5-20 2h-1845l-18-2-15-4-17-8-14-10-13-13-9-13-8-16-6-18v-40l3-8 5-14 8-14 9-12h2l2-4 10-9 14-9 15-7 17-4z"/>
<path transform="translate(601,307)" d="m0 0h1358l18 4 15 6 16 10 13 12 9 11 8 14 6 14 3 10 1 1v44l-2 1-4 12-8 16-7 11-12 13-13 10-15 8-15 5-9 2-9 1h-1349l-19-3-15-6-13-7-10-8-7-6v-2h-2l-11-14-8-14-7-21-2-15v-12l2-15 4-14 7-16 11-16 13-13 16-11 13-6 12-4z"/>
<path transform="translate(1022,1535)" d="m0 0h925l20 2 16 5 16 8 14 10 11 11 8 11 6 10 8 21v4h2v44l-2 2-6 17-8 15-10 13-8 8-14 10-16 8-17 5-15 2h-936l-19-3-16-6-15-8-14-12-11-12-8-13-7-16-4-15-1-6v-23l4-19 5-13 6-11 8-11 10-11 14-11 15-8 15-5 12-2z"/>
<path transform="translate(2047,385)" d="m0 0"/>
<path transform="translate(2047,1614)" d="m0 0"/>
</svg>
