<?xml version="1.0" encoding="UTF-8"?>
<svg version="1.1" viewBox="0 0 2048 2048" width="512" height="512" xmlns="http://www.w3.org/2000/svg">
<path transform="translate(330,392)" d="m0 0h727l12 2 10 4 10 6 7 6 9 13 4 9 2 7 1 15-3 14-8 16-10 11-13 8-12 4-8 1-721 1-20 2-21 5-20 8-16 9-14 10-11 10h-2l-2 4-7 7-11 15-10 17-8 20-5 19-2 11-1 14v774l2 22 6 23 9 21 10 17 11 14 7 7v2l4 2 11 10 15 10 19 10 24 8 16 3 7 1 20 1h236l36 1 12 3 14 8 9 8 9 14 4 11 1 6v29l-3 93-2 55v24l3 6 1 3 10 4h7l10-5 21-16 19-14 21-16 19-14 17-13 16-12 21-16 64-48 21-16 19-14 21-16 19-14 21-16 28-21 12-8 15-5 12-1h308l91-1 24-4 21-7 17-8 16-10 13-11 3-3h2v-2l5-5 8-9 10-14 11-21 7-21 3-14 2-17 1-480 3-14 4-10 8-11 11-10 15-7 11-2h12l11 2 12 5 13 10 9 12 5 11 2 9v496l-3 25-6 27-10 30-16 33-13 20-12 16-13 15-17 17-11 9-17 13-21 13-16 8-15 7-30 10-27 6-23 3-16 1h-243l-131 1-13 10-19 14-13 10-19 14-13 10-32 24-13 10-108 81-21 16-19 14-21 16-16 12-17 12-16 9-19 7-23 5h-31l-20-4-19-7-19-10-13-10-12-11-11-13-10-16-7-15-5-16-3-17v-52l3-89 1-5h-214l-27-2-24-4-23-6-20-7-20-9-19-10-18-12-13-10-11-9-26-26-11-14-11-15-14-24-9-19-8-21-8-30-4-26-1-11-1-25v-756l2-31 4-24 6-24 8-23 9-20 11-20 12-18 11-14 12-14 17-17 11-9 13-10 17-11 18-10 21-10 30-10 28-6 15-2z"/>
<path transform="translate(1585,83)" d="m0 0h19l17 3 15 5 15 8 11 9 8 8 10 14 16 26 55 88 7 10 144 36 18 6 16 9 11 9 8 8 9 13 8 16 4 13 2 11v21l-3 16-5 13-6 12-9 12-8 10-22 26-9 11-24 28-9 11-11 13-9 11-4 5 2 38 7 100v35l-4 17-9 19-8 11-3 4h-2l-2 4-12 10-16 9-18 6-9 2-9 1h-10l-15-2-24-8-34-14-89-36-8-3-6 1-109 44-28 11-21 6-9 1h-13l-17-3-14-5-12-6-11-8-11-10-10-13-8-15-5-16-2-11v-25l9-128 1-16-9-11-13-15-8-10-13-15-9-11-12-14-8-10-13-15-16-20-7-11-7-16-4-16-1-16 2-17 5-17 8-16 9-12 6-7 14-11 11-6 12-5 26-7 124-31 5-2 12-19 16-26 24-38 16-26 13-20 10-13 9-8 14-9 14-6 17-4zm9 131-9 14-60 96-7 11-8 10-1 3-4 2-7 5-19 7-73 18-63 16 1 4 11 12 8 10 12 14 8 10 12 14 9 11 12 14 9 11 12 15 6 10 4 13v31l-8 116v12l16-6 97-39 23-9 12-3h14l16 4 92 37 27 11 12 5h2v-10l-9-127v-18l3-12 7-14 13-16 6-7v-2h2l18-22 12-14 14-17 8-9 8-10 12-14 1-3 2-1-29-8-112-28-16-7-10-8-9-11-15-24-13-21-24-38-16-26-6-10h-2z"/>
<path transform="translate(586,843)" d="m0 0h641l16 3 14 7 10 9 7 9 5 10 3 10 1 13-3 15-8 16-9 10-10 7-9 4-12 3h-650l-12-3-13-7-8-7v-2h-2l-7-10-5-11-3-14 1-14 5-15 7-11 5-6 11-8 10-5z"/>
<path transform="translate(585,1134)" d="m0 0h346l12 2 9 4 10 6 8 7 7 10 5 11 2 7v22l-4 12-6 11-10 11-13 8-13 4-5 1h-350l-12-3-14-7-10-9-7-10-6-13-2-10v-10l3-14 4-9 6-9 7-8 10-7 8-4 7-2z"/>
</svg>
