<?xml version="1.0" encoding="UTF-8"?>
<svg version="1.1" viewBox="0 0 2048 2048" fill="#4550a1" width="512" height="512" xmlns="http://www.w3.org/2000/svg">
<path transform="translate(1016,42)" d="m0 0h17l17 2 17 4 21 8 16 9 12 9 10 9 10 10 10 13 12 21 8 16 14 29 26 52 11 23 19 38 11 23 29 58 11 23 25 50 11 23 31 62 11 23 14 28 8 12 7 7 11 7 12 5 15 3 166 24 268 39 54 8 19 4 21 7 19 10 14 10 12 11 8 8 11 15 8 13 8 19 7 21h1v57l-2 1-4 15-6 16-10 19-12 16-14 15-7 7-8 7-30 30h-2l-1 3-8 7-33 33-8 7-29 29h-2v2h-2v2l-8 7-25 25-8 7-34 34h-2l-1 3-8 7-33 33-8 7-25 25h-2l-2 4h-2v2l-8 7-27 27-8 7-28 28-8 12-5 14-1 4v22l28 164 21 122 17 100 16 93 3 18 1 10v26l-2 15-6 21-7 16-9 16-11 14-5 6h-2l-2 4-8 7-15 11-16 9-21 8-22 5-8 1h-27l-19-3-17-5-24-11-25-13-22-12-31-16-19-10-28-15-29-15-42-22-28-15-31-16-22-12-35-18-19-10-28-15-29-15-19-10-32-17-15-5-5-1h-19l-15 4-20 10-22 12-31 16-22 12-17 9-16 8-24 13-16 8-51 27-29 15-22 12-37 19-18 10-16 8-23 12-28 15-35 18-20 11-19 8-21 6-12 2-11 1h-15l-17-2-17-4-17-6-21-11-17-13-16-16-10-13-11-19-6-15-4-13-3-16-1-10v-15l3-24 16-94 11-64 13-76 14-82 13-75 13-76 4-25v-16l-3-13-8-16-8-9v-2l-4-2v-2l-4-2-33-33-8-7-21-21-8-7-33-33-8-7-37-37-4-3v-2l-4-2-33-33-8-7-25-25-8-7-33-33-8-7-33-33-2-1v-2h-2v-2l-4-2-33-33-6-5-7-8-8-9-10-16-8-16-7-21-3-11v-49l2-5 6-21 8-18 9-15 10-13 17-17 17-12 14-8 18-7 21-5 137-20 364-53 16-5 12-7 10-9 8-12 8-16 9-19 25-50 11-23 32-64 11-23 27-54 11-23 26-52 9-19 25-50 11-23 20-40 10-16 9-11 7-8 8-7 10-8 18-11 18-8 18-5 12-2z"/>
</svg>
