<?xml version="1.0" encoding="UTF-8"?>
<svg version="1.1" viewBox="0 0 2000 2000" width="500" height="500" xmlns="http://www.w3.org/2000/svg">
<path transform="translate(963,340)" d="m0 0h74l29 2 41 5 28 5 45 11 24 7 38 14 21 9 34 16 23 12 22 13 15 9 18 12 19 14 16 12 16 13 12 11 8 7 13 12 10 9 15 16 7 8 12 13 11 13 14 19 10 14 13 18 16 27 9 15 10 18 18 37 10 23 17 48 7 25 10 41 6 36 5 40 1 20v72l-2 31-7 49-7 33-10 39-12 36-11 29-11 24-14 29-10 19-10 16-16 26-13 18-16 21-8 11-12 14-9 10-12 13-7 8-19 19-8 7-15 14-11 9-15 12-14 10-18 13-15 10-29 17-15 9-16 8-29 14-19 8-18 7-29 10-19 6-48 12-20 4-48 7-24 2h-89l-25-2-54-8-34-8-33-9-33-11-32-12-30-14-27-13-27-16-28-17-38-28-13-10-14-12-16-15-13-12-18-18-7-8-11-12-9-11-8-9-28-38-9-13-13-21-16-27-11-21-13-28-10-23-17-48-8-29-9-39-7-44-3-25-1-13-1-52 1-42 2-22 8-54 7-30 9-35 11-33 12-32 16-34 12-25 24-40 10-16 11-15 13-18 9-12 8-10 12-14 8-8 7-8 14-15 7-7 8-7 10-9 13-12 11-9 17-13 19-14 17-12 40-24 17-10 50-24 29-11 30-11 38-10 40-9 45-6 19-2z" fill="#FDFDFD"/>
<path transform="translate(1112,486)" d="m0 0h224l7 1-2 4-19 19-4 5-5 5-10 9-96 96-5 6-17 17h-2l-2 4-4 4h-2l-1 3-121 121-7 8-22 22-5 6h-2l-2 4-4 2v-46l1-91 1-56 1-86 2-54 6-2z" fill="#5789C4"/>
<path transform="translate(1062,832)" d="m0 0h279l-2 3h-2l-2 4-14 14h-2l-1 3-8 7-30 30-2 3h-2l-2 4-8 8h-2l-2 4-35 35-1 2h-2l-2 4-48 48-6 7-8 7-4 5h-2l-2 4h-2l-2 4h-2l-2 4-52 52-7 6-1 2h-2l-2 4-8 7-15 15-1 2h-2l-2 4-38 38-4 5h-2v-48l3-158 1-71 1-43 1-14z" fill="#5789C4"/>
<path transform="translate(683,486)" d="m0 0h292l24 1v4l-7 8-95 95-1 2h-2l-2 4-8 8h-2l-2 4-32 32-8 7-4 5-7 6-1 2h-2l-2 4-150 150h-2l1-146 2-90 1-56 1-36 2-3z" fill="#5789C4"/>
<path transform="translate(731,1172)" d="m0 0h260l10 1-2 4-10 10-8 7-72 72-1 2h-2l-2 4h-2l-2 4-69 69-8 7-32 32-7 8-7 6-7 8-52 52-7 8-33 33-5 1v-81l2-65 2-122 1-19-1-3v-23l1-13 6-1z" fill="#5789C4"/>
<path transform="translate(726,828)" d="m0 0 274 1-2 4-23 23-6 5-7 8h-2l-2 4h-2l-2 4h-2l-2 4-12 12h-2l-2 4-45 45-1 2h-2l-2 4-6 5-7 8-19 19-8 7-8 9-8 6-6 7-8 7-15 16-69 69h-2l-2 4-17 17-7 8-15 15-7 8-6 5h-1v-65l2-77 1-56 1-93v-24l1-14z" fill="#5789C4"/>
<path transform="translate(679,1213)" d="m0 0 8 6 15 13 14 12 9 8 11 9 12 11 11 9 12 11 8 7 14 12 10 9 11 9 10 9 8 5-41 41-7 8-7 6-7 8-52 52-7 8-33 33-5 1v-81l2-65 2-122 1-15z" fill="#88D0DC"/>
<path transform="translate(678,868)" d="m0 0 5 3 11 9 12 11 9 7v2l4 2 10 9 8 7 10 8v2l4 2 10 9 11 9 13 12 8 7 15 13 8 7 10 8 6 3-6 7-15 14-11 12-70 70h-2l-2 4-17 17-7 8-15 15-7 8-6 5h-1v-65l2-77 1-56 1-89z" fill="#88D0DC"/>
<path transform="translate(683,486)" d="m0 0h292l24 1v4l-3 3 2-6-310 1-8 1-1 7-1 32-1 75-2 72-1 82h-1v-86l2-90 1-56 1-36 2-3z" fill="#88D0DC"/>
<path transform="translate(1112,486)" d="m0 0h224l7 1-2 4-2-2-317-1v-1z" fill="#88D0DC"/>
</svg>
